<svg xmlns:inkscape="http://www.inkscape.org/namespaces/inkscape" xmlns:sodipodi="http://sodipodi.sourceforge.net/DTD/sodipodi-0.dtd" xmlns="http://www.w3.org/2000/svg" xmlns:svg="http://www.w3.org/2000/svg" viewBox="0 0 8.4667997 10.583496125" version="1.1" x="0px" y="0px"><g transform="translate(-66.24118,-199.63948)"><path style="color:#000000;" d="m 68.091797,200.69727 c -0.435244,0 -0.792968,0.35772 -0.792969,0.79296 v 4.76368 c 10e-7,0.43524 0.357725,0.79297 0.792969,0.79296 h 4.763672 c 0.435243,10e-6 0.792968,-0.35772 0.792968,-0.79296 v -4.76368 c 0,-0.43524 -0.357725,-0.79296 -0.792968,-0.79296 z m 0,0.52929 h 4.763672 c 0.149261,0 0.263671,0.11441 0.263672,0.26367 v 4.76368 c -10e-7,0.14926 -0.114411,0.26367 -0.263672,0.26367 h -4.763672 c -0.149261,0 -0.263672,-0.11441 -0.263672,-0.26367 v -4.76368 c 0,-0.14926 0.114411,-0.26367 0.263672,-0.26367 z" fill="#000000" stroke-linecap="round" stroke-linejoin="round"/><path style="font-variation-settings:'wght' 700;" d="m 72.325685,202.54898 a 0.52916104,0.52916104 0 0 1 -0.529161,0.52916 0.52916104,0.52916104 0 0 1 -0.529161,-0.52916 0.52916104,0.52916104 0 0 1 0.529161,-0.52916 0.52916104,0.52916104 0 0 1 0.529161,0.52916 z" stroke-width="0.529167" stroke-linecap="round" stroke-linejoin="round"/><path style="color:#000000;" d="m 68.037109,203.55273 -0.660156,0.66211 a 0.26460996,0.26460996 0 0 0 -0.07813,0.18555 v 1.85352 a 0.26460996,0.26460996 0 0 0 0.07813,0.18554 l 0.527344,0.5293 a 0.26460996,0.26460996 0 0 0 0.1875,0.0781 h 4.763672 a 0.26460996,0.26460996 0 0 0 0.185547,-0.0781 l 0.529296,-0.5293 a 0.26460996,0.26460996 0 0 0 0.07813,-0.18554 v -0.5293 a 0.26460996,0.26460996 0 0 0 -0.0918,-0.20117 l -1.425782,-1.22266 c -0.343571,-0.29449 -0.863615,-0.27505 -1.183593,0.0449 l -0.263672,0.26563 c -0.118081,0.11808 -0.301844,0.11808 -0.419922,0 l -1.058594,-1.0586 c -0.320299,-0.3203 -0.84767,-0.3203 -1.167969,0 z m 0.375,0.37305 c 0.118079,-0.11808 0.301844,-0.11808 0.419922,0 l 1.056641,1.05859 c 0.320296,0.32031 0.847665,0.3203 1.167969,0 l 0.265625,-0.26367 c 0.127921,-0.12792 0.325537,-0.13531 0.46289,-0.0176 l 1.333985,1.14258 v 0.29883 l -0.373047,0.37305 h -4.544922 l -0.373047,-0.37305 v -1.63476 z" fill="#000000" stroke-linecap="round" stroke-linejoin="round"/><path style="font-variation-settings:'wght' 700;" d="m 67.56319,204.40107 0.661453,-0.66145 a 0.56126846,0.56126846 180 0 1 0.793754,0 l 1.058326,1.05832 a 0.56127111,0.56127111 1.3534415e-4 0 0 0.793756,10e-6 l 0.264582,-0.26459 a 0.6061034,0.6061034 177.80081 0 1 0.823025,-0.0316 l 1.425934,1.22223 -1e-5,0.52916 -0.52916,0.52917 h -4.7625 l -0.52917,-0.52917 z" fill="#000000" stroke="none"/></g><text x="0" y="23.4667969" fill="#000000" font-size="5px" font-weight="bold" font-family="'Helvetica Neue', Helvetica, Arial-Unicode, Arial, Sans-serif">Created by Meko</text><text x="0" y="28.4667969" fill="#000000" font-size="5px" font-weight="bold" font-family="'Helvetica Neue', Helvetica, Arial-Unicode, Arial, Sans-serif">from the Noun Project</text></svg>